<svg width="828" height="487" viewBox="0 0 828 487" fill="none" xmlns="http://www.w3.org/2000/svg">
  <style>
    path { fill: #000000; stroke: none; }
    @media (prefers-color-scheme: dark) {
      path { fill: #ffffff; }
    }
  </style>
<path d="M244.066 216V172.877C244.066 152.727 235.094 144.092 220.492 144.092C206.366 144.092 196.059 152.631 196.059 172.877V224.689H184.033V172.493C184.033 152.535 173.63 144.188 159.982 144.188C144.997 144.188 136.026 154.646 136.026 172.493V224.689H124V135.265H136.026V145.531C142.897 136.512 149.865 133.058 161.127 133.058C174.489 133.058 183.269 138.335 190.237 150.233C197.681 138.335 207.321 132.866 221.16 132.866C241.489 132.866 256.187 145.435 256.187 171.437V224.593H244.066V216Z"/>
<path fill-rule="evenodd" clip-rule="evenodd" d="M277.146 119.271C277.146 122.42 279.699 124.973 282.848 124.973C285.997 124.973 288.55 122.42 288.55 119.271C288.55 116.122 285.997 113.569 282.848 113.569C279.699 113.569 277.146 116.122 277.146 119.271ZM276.611 135.265V224.689H288.637V135.265H276.611Z"/>
<path d="M375.871 224.689V177.77C375.871 153.399 364.8 144.284 348.384 144.284C332.254 144.284 321.183 153.591 321.183 175.563V224.785H309.157V135.361H321.183V146.97C328.627 137.855 338.076 133.25 349.815 133.25C372.149 133.25 387.897 146.491 387.897 177.866V224.785H375.871V224.689Z"/>
<path fill-rule="evenodd" clip-rule="evenodd" d="M499.278 103.793H487.252V149.465C478.471 138.815 466.255 133.154 452.225 133.154C425.406 133.154 404.886 153.399 404.886 180.073C404.886 206.555 425.883 226.896 453.37 226.896C468.164 226.896 478.281 221.523 487.252 208.57V217.877V270.745C478.471 260.094 466.255 254.433 452.32 254.433C425.501 254.433 404.981 274.679 404.981 301.352C404.981 327.834 425.978 348.175 453.466 348.175C468.259 348.175 478.376 342.802 487.347 329.849V346.065H499.373V224.689V103.793H499.278ZM453.084 215.67C432.755 215.67 417.102 199.934 417.102 179.497C417.102 159.828 432.564 144.188 451.939 144.188C471.6 144.188 487.729 160.019 487.729 179.689C487.729 199.358 472.172 215.67 453.084 215.67ZM417.102 300.681C417.102 321.118 432.755 336.854 453.084 336.854C472.172 336.854 487.729 320.542 487.729 300.873C487.729 281.203 471.6 265.372 451.939 265.372C432.564 265.372 417.102 281.011 417.102 300.681Z"/>
<path fill-rule="evenodd" clip-rule="evenodd" d="M562.842 336.949C544.613 336.949 529.151 322.845 528.197 305.19H608.749C608.749 273.431 588.707 254.337 562.365 254.337C536.5 254.337 516.171 274.774 516.171 300.777C516.171 327.259 536.882 348.079 563.224 348.079C583.362 348.079 600.732 333.495 606.459 316.512H593.956C588.898 328.794 576.299 336.949 562.842 336.949ZM528.483 294.156C531.728 276.981 545.281 265.371 562.174 265.371C579.449 265.371 592.62 276.406 596.629 294.156H528.483Z"/>
<path d="M691.975 345.873V298.954C691.975 274.582 680.903 265.467 664.487 265.467C648.358 265.467 637.286 274.774 637.286 296.747V345.969H625.261V256.544H637.286V268.154C644.731 259.039 654.18 254.433 665.919 254.433C688.252 254.433 704 267.674 704 299.049V345.969H691.975V345.873Z"/>
<path d="M433.93 416.514C428.815 416.514 425.404 413.403 425.404 408.604H428.909C428.909 411.626 430.899 413.403 433.93 413.403C436.487 413.403 438.382 411.626 438.382 409.049C438.382 406.561 437.056 405.761 433.267 404.25C429.572 402.828 429.478 402.828 428.341 401.851C427.015 400.695 426.352 399.185 426.352 397.407C426.352 393.408 429.572 390.387 433.835 390.387C438.098 390.387 441.319 393.142 441.319 397.141H437.719C437.719 394.741 436.203 393.497 433.835 393.497C431.751 393.497 430.046 395.097 430.046 397.052C430.046 398.474 430.804 399.54 432.509 400.34C433.267 400.695 433.456 400.784 437.53 402.295C440.656 403.539 442.171 405.583 442.171 408.693C442.076 413.403 438.666 416.514 433.93 416.514Z"/>
<path fill-rule="evenodd" clip-rule="evenodd" d="M455.055 403.361C455.055 411.004 461.023 416.514 469.264 416.514C477.032 416.514 482.715 411.093 482.715 403.539C482.715 395.985 476.937 390.476 468.98 390.476C461.117 390.476 455.055 396.074 455.055 403.361ZM458.749 403.45C458.749 397.852 463.107 393.586 468.98 393.586C474.758 393.586 479.116 397.852 479.116 403.628C479.116 409.227 474.948 413.403 469.169 413.403C463.107 413.403 458.749 409.227 458.749 403.45Z"/>
<path d="M502.892 394.119V415.892H499.292V394.119H495.219V391.098H499.292C499.197 385.322 502.608 382.389 509.428 382.389V385.41C504.502 385.41 502.797 386.921 502.797 391.098H509.428V394.119H502.892Z"/>
<path d="M530.932 394.119V415.892H527.332V394.119H521.648V391.098H527.332V382.389H530.932V391.098H536.9V394.119H530.932Z"/>
<path d="M580.095 394.119V415.892H576.495V394.119H570.812V391.098H576.495V382.389H580.095V391.098H586.063V394.119H580.095Z"/>
<path fill-rule="evenodd" clip-rule="evenodd" d="M611.072 413.492C605.672 413.492 601.03 409.582 600.746 404.694H624.712C624.712 395.897 618.745 390.565 610.882 390.565C603.209 390.565 597.146 396.252 597.146 403.45C597.146 410.826 603.304 416.602 611.166 416.602C617.134 416.602 622.344 412.515 624.049 407.805H620.355C618.839 411.182 615.05 413.492 611.072 413.492ZM600.841 401.584C601.788 396.785 605.861 393.586 610.882 393.586C615.997 393.586 619.976 396.696 621.113 401.584H600.841Z"/>
<path d="M652.752 416.514C644.606 416.514 638.354 410.826 638.354 403.45C638.354 396.252 644.606 390.476 652.563 390.476C658.531 390.476 663.646 393.586 665.73 398.651H661.751C659.762 395.363 656.447 393.586 652.563 393.586C646.69 393.586 642.048 397.941 642.048 403.539C642.048 409.049 646.784 413.403 652.657 413.403C656.352 413.403 658.91 412.07 661.751 408.604H665.825C662.604 414.292 658.246 416.514 652.752 416.514Z"/>
<path d="M700.305 415.98V402.65C700.305 396.43 696.99 393.675 692.158 393.675C687.517 393.675 684.107 396.341 684.107 402.384V415.98H680.507V382.389H684.107V394.297C685.906 391.809 688.938 390.476 692.537 390.476C699.452 390.476 703.999 394.208 703.999 402.562V415.892H700.305V415.98Z"/>
<path fill-rule="evenodd" clip-rule="evenodd" d="M591.752 70.0639C553.905 76.2866 525 109.733 525 150.059C525 194.813 560.6 231.093 604.514 231.093C646.087 231.093 680.208 198.578 683.729 157.141C678.261 163.933 671.425 169.576 663.639 173.652C654.028 196.531 631.409 212.598 605.037 212.598C569.948 212.598 541.502 184.153 541.502 149.063C541.502 124.593 555.336 103.354 575.61 92.7396C579.273 84.0211 584.824 76.2919 591.752 70.0639Z"/>
<path d="M634.546 70C630.178 70 625.906 70.5748 621.823 71.7243C615.842 73.4487 610.24 76.2267 605.398 80.0586C601.315 83.2198 597.707 87.1475 594.859 91.4583C592.296 95.2901 590.302 99.5052 588.973 103.912C587.643 108.318 586.884 113.108 586.884 117.994C586.884 144.529 608.246 166.083 634.546 166.083C639.198 166.083 643.66 165.413 647.838 164.167C651.92 162.922 655.813 161.198 659.421 158.994C664.168 156.025 668.346 152.289 671.858 147.882C675.466 143.38 678.22 138.207 679.929 132.555C681.353 127.957 682.207 123.071 682.207 117.994C682.112 91.5541 660.75 70 634.546 70Z"/>
</svg>
